<svg xmlns="http://www.w3.org/2000/svg" xmlns:xlink="http://www.w3.org/1999/xlink" width="1080" zoomAndPan="magnify" viewBox="0 0 810 809.999993" height="1080" preserveAspectRatio="xMidYMid meet" version="1.0"><defs><g/><clipPath id="e3a83dcf69"><path d="M 0 0 L 81 0 L 81 678.964844 L 0 678.964844 Z M 0 0 " clip-rule="nonzero"/></clipPath><clipPath id="9292f63532"><path d="M 0 0 L 81 0 L 81 678.964844 L 0 678.964844 Z M 0 0 " clip-rule="nonzero"/></clipPath><clipPath id="d4897f3c5e"><rect x="0" width="81" y="0" height="679"/></clipPath><clipPath id="10881266bc"><path d="M 729 0 L 810 0 L 810 678.964844 L 729 678.964844 Z M 729 0 " clip-rule="nonzero"/></clipPath><clipPath id="43360ff3ee"><path d="M 0 0 L 81 0 L 81 678.964844 L 0 678.964844 Z M 0 0 " clip-rule="nonzero"/></clipPath><clipPath id="ff9deb48d6"><rect x="0" width="81" y="0" height="679"/></clipPath><clipPath id="63121c628b"><path d="M 131.414062 103.65625 L 405 103.65625 L 405 208.636719 L 131.414062 208.636719 Z M 131.414062 103.65625 " clip-rule="nonzero"/></clipPath><clipPath id="c090eed04e"><path d="M 0.414062 0.65625 L 274 0.65625 L 274 105.636719 L 0.414062 105.636719 Z M 0.414062 0.65625 " clip-rule="nonzero"/></clipPath><clipPath id="06fb0d30d6"><rect x="0" width="274" y="0" height="106"/></clipPath><clipPath id="a3974de5f5"><path d="M 232.332031 272.265625 L 577.667969 272.265625 L 577.667969 405 L 232.332031 405 Z M 232.332031 272.265625 " clip-rule="nonzero"/></clipPath><clipPath id="aaa87be2bd"><path d="M 0.332031 0.265625 L 345.667969 0.265625 L 345.667969 133 L 0.332031 133 Z M 0.332031 0.265625 " clip-rule="nonzero"/></clipPath><clipPath id="dc6dcb9d1b"><rect x="0" width="346" y="0" height="133"/></clipPath><clipPath id="ba0e59de2e"><path d="M 405 468.75 L 678.585938 468.75 L 678.585938 573.730469 L 405 573.730469 Z M 405 468.75 " clip-rule="nonzero"/></clipPath><clipPath id="1493e8849e"><path d="M 0 0.75 L 273.585938 0.75 L 273.585938 105.730469 L 0 105.730469 Z M 0 0.75 " clip-rule="nonzero"/></clipPath><clipPath id="cd8cfb97a6"><rect x="0" width="274" y="0" height="106"/></clipPath></defs><g clip-path="url(#e3a83dcf69)"><g transform="matrix(1, 0, 0, 1, 0, 0.000000000000039746)"><g clip-path="url(#d4897f3c5e)"><g clip-path="url(#9292f63532)"><rect x="-178.2" width="1166.4" fill="#e8e2e2" height="1166.39999" y="-178.199998" fill-opacity="1"/></g></g></g></g><g clip-path="url(#10881266bc)"><g transform="matrix(1, 0, 0, 1, 729, 0.000000000000039746)"><g clip-path="url(#ff9deb48d6)"><g clip-path="url(#43360ff3ee)"><rect x="-907.2" width="1166.4" fill="#e8e2e2" height="1166.39999" y="-178.199998" fill-opacity="1"/></g></g></g></g><g clip-path="url(#63121c628b)"><g transform="matrix(1, 0, 0, 1, 131, 103)"><g clip-path="url(#06fb0d30d6)"><g clip-path="url(#c090eed04e)"><path fill="#e8e2e2" d="M 0.414062 0.65625 L 273.933594 0.65625 L 273.933594 105.636719 L 0.414062 105.636719 Z M 0.414062 0.65625 " fill-opacity="1" fill-rule="nonzero"/></g></g></g></g><g clip-path="url(#a3974de5f5)"><g transform="matrix(1, 0, 0, 1, 232, 272)"><g clip-path="url(#dc6dcb9d1b)"><g clip-path="url(#aaa87be2bd)"><path fill="#e8e2e2" d="M 0.332031 0.265625 L 345.648438 0.265625 L 345.648438 133 L 0.332031 133 Z M 0.332031 0.265625 " fill-opacity="1" fill-rule="nonzero"/></g></g></g></g><g clip-path="url(#ba0e59de2e)"><g transform="matrix(1, 0, 0, 1, 405, 468)"><g clip-path="url(#cd8cfb97a6)"><g clip-path="url(#1493e8849e)"><path fill="#e8e2e2" d="M 0 0.75 L 273.519531 0.75 L 273.519531 105.730469 L 0 105.730469 Z M 0 0.75 " fill-opacity="1" fill-rule="nonzero"/></g></g></g></g><g fill="#e8e2e2" fill-opacity="1"><g transform="translate(212.807806, 796.2001)"><g><path d="M 0.625 -51.484375 L 0.625 -64.34375 L 45.859375 -64.34375 L 45.859375 -51.484375 L 30.578125 -51.484375 L 30.578125 0 L 15.90625 0 L 15.90625 -51.484375 Z M 0.625 -51.484375 "/></g></g></g><g fill="#e8e2e2" fill-opacity="1"><g transform="translate(259.295845, 796.2001)"><g><path d="M 7.40625 -4.953125 C 3.664062 -9.035156 1.796875 -14.039062 1.796875 -19.96875 C 1.796875 -25.894531 3.664062 -30.910156 7.40625 -35.015625 C 11.15625 -39.128906 15.914062 -41.1875 21.6875 -41.1875 C 26.988281 -41.1875 31.351562 -39.519531 34.78125 -36.1875 L 34.78125 -40.015625 L 48.59375 -40.015625 L 48.59375 0 L 34.9375 0 L 34.9375 -4.53125 L 34.78125 -4.53125 C 31.351562 -0.726562 26.988281 1.171875 21.6875 1.171875 C 15.914062 1.171875 11.15625 -0.867188 7.40625 -4.953125 Z M 19.140625 -26.75 C 17.347656 -24.988281 16.453125 -22.726562 16.453125 -19.96875 C 16.453125 -17.207031 17.3125 -14.957031 19.03125 -13.21875 C 20.75 -11.476562 23.007812 -10.609375 25.8125 -10.609375 C 28.519531 -10.609375 30.742188 -11.488281 32.484375 -13.25 C 34.222656 -15.019531 35.09375 -17.257812 35.09375 -19.96875 C 35.09375 -22.726562 34.195312 -24.988281 32.40625 -26.75 C 30.613281 -28.519531 28.414062 -29.40625 25.8125 -29.40625 C 23.164062 -29.40625 20.941406 -28.519531 19.140625 -26.75 Z M 19.140625 -26.75 "/></g></g></g><g fill="#e8e2e2" fill-opacity="1"><g transform="translate(312.569886, 796.2001)"><g><path d="M 22.078125 -41.1875 C 24.359375 -41.1875 26.617188 -40.925781 28.859375 -40.40625 C 31.097656 -39.882812 32.765625 -39.363281 33.859375 -38.84375 L 35.484375 -38.0625 L 30.96875 -29.015625 C 27.84375 -30.679688 24.878906 -31.515625 22.078125 -31.515625 C 20.515625 -31.515625 19.40625 -31.34375 18.75 -31 C 18.101562 -30.664062 17.78125 -30.03125 17.78125 -29.09375 C 17.78125 -28.882812 17.804688 -28.675781 17.859375 -28.46875 C 17.910156 -28.257812 18.015625 -28.0625 18.171875 -27.875 C 18.328125 -27.695312 18.46875 -27.539062 18.59375 -27.40625 C 18.726562 -27.28125 18.953125 -27.140625 19.265625 -26.984375 C 19.578125 -26.828125 19.820312 -26.707031 20 -26.625 C 20.1875 -26.550781 20.488281 -26.4375 20.90625 -26.28125 C 21.320312 -26.125 21.632812 -26.003906 21.84375 -25.921875 C 22.050781 -25.847656 22.398438 -25.734375 22.890625 -25.578125 C 23.390625 -25.421875 23.769531 -25.316406 24.03125 -25.265625 C 25.632812 -24.796875 27.035156 -24.273438 28.234375 -23.703125 C 29.429688 -23.140625 30.691406 -22.363281 32.015625 -21.375 C 33.347656 -20.382812 34.375 -19.132812 35.09375 -17.625 C 35.820312 -16.113281 36.1875 -14.398438 36.1875 -12.484375 C 36.1875 -3.378906 29.867188 1.171875 17.234375 1.171875 C 14.378906 1.171875 11.660156 0.726562 9.078125 -0.15625 C 6.503906 -1.039062 4.648438 -1.925781 3.515625 -2.8125 L 1.796875 -4.21875 L 7.40625 -13.65625 C 7.820312 -13.289062 8.367188 -12.859375 9.046875 -12.359375 C 9.722656 -11.867188 10.941406 -11.191406 12.703125 -10.328125 C 14.472656 -9.472656 16.007812 -9.046875 17.3125 -9.046875 C 20.175781 -9.046875 21.609375 -10.007812 21.609375 -11.9375 C 21.609375 -12.820312 21.242188 -13.507812 20.515625 -14 C 19.785156 -14.488281 18.550781 -15.046875 16.8125 -15.671875 C 15.070312 -16.296875 13.707031 -16.867188 12.71875 -17.390625 C 10.21875 -18.691406 8.238281 -20.160156 6.78125 -21.796875 C 5.332031 -23.441406 4.609375 -25.613281 4.609375 -28.3125 C 4.609375 -32.363281 6.179688 -35.519531 9.328125 -37.78125 C 12.472656 -40.050781 16.722656 -41.1875 22.078125 -41.1875 Z M 22.078125 -41.1875 "/></g></g></g><g fill="#e8e2e2" fill-opacity="1"><g transform="translate(350.945918, 796.2001)"><g><path d="M 50.390625 -40.015625 L 31.359375 -20.90625 L 52.265625 0 L 34.46875 0 L 18.484375 -15.984375 L 18.484375 0 L 4.6875 0 L 4.6875 -67.078125 L 18.484375 -67.078125 L 18.484375 -26.046875 L 32.453125 -40.015625 Z M 50.390625 -40.015625 "/></g></g></g><g fill="#e8e2e2" fill-opacity="1"><g transform="translate(401.333966, 796.2001)"><g><path d="M 41.890625 -64.34375 L 41.890625 -51.484375 L 19.34375 -51.484375 L 19.34375 -38.6875 L 40.171875 -38.6875 L 40.171875 -25.8125 L 19.34375 -25.8125 L 19.34375 0 L 4.6875 0 L 4.6875 -64.34375 Z M 41.890625 -64.34375 "/></g></g></g><g fill="#e8e2e2" fill-opacity="1"><g transform="translate(445.559999, 796.2001)"><g><path d="M 4.6875 0 L 4.6875 -67.078125 L 18.484375 -67.078125 L 18.484375 0 Z M 4.6875 0 "/></g></g></g><g fill="#e8e2e2" fill-opacity="1"><g transform="translate(468.726021, 796.2001)"><g><path d="M 8.453125 -4.75 C 4.015625 -8.707031 1.796875 -13.78125 1.796875 -19.96875 C 1.796875 -26.15625 4.109375 -31.238281 8.734375 -35.21875 C 13.359375 -39.195312 19.078125 -41.1875 25.890625 -41.1875 C 32.597656 -41.1875 38.253906 -39.179688 42.859375 -35.171875 C 47.460938 -31.171875 49.765625 -26.101562 49.765625 -19.96875 C 49.765625 -13.832031 47.515625 -8.773438 43.015625 -4.796875 C 38.515625 -0.816406 32.804688 1.171875 25.890625 1.171875 C 18.710938 1.171875 12.898438 -0.800781 8.453125 -4.75 Z M 19.140625 -26.75 C 17.347656 -24.988281 16.453125 -22.726562 16.453125 -19.96875 C 16.453125 -17.207031 17.3125 -14.957031 19.03125 -13.21875 C 20.75 -11.476562 23.007812 -10.609375 25.8125 -10.609375 C 28.519531 -10.609375 30.742188 -11.488281 32.484375 -13.25 C 34.222656 -15.019531 35.09375 -17.257812 35.09375 -19.96875 C 35.09375 -22.726562 34.195312 -24.988281 32.40625 -26.75 C 30.613281 -28.519531 28.414062 -29.40625 25.8125 -29.40625 C 23.164062 -29.40625 20.941406 -28.519531 19.140625 -26.75 Z M 19.140625 -26.75 "/></g></g></g><g fill="#e8e2e2" fill-opacity="1"><g transform="translate(520.284079, 796.2001)"><g><path d="M 29.25 0 L 19.890625 0 L -1.5625 -40.015625 L 14.359375 -40.015625 L 24.109375 -18.40625 L 33.703125 -40.015625 L 43.21875 -40.015625 L 52.8125 -18.40625 L 62.5625 -40.015625 L 78.46875 -40.015625 L 57.015625 0 L 47.65625 0 L 38.453125 -20.671875 Z M 29.25 0 "/></g></g></g></svg>