<svg xmlns="http://www.w3.org/2000/svg" xmlns:xlink="http://www.w3.org/1999/xlink" width="500" zoomAndPan="magnify" viewBox="0 0 375 374.999991" height="500" preserveAspectRatio="xMidYMid meet" version="1.0"><path fill="#1e1e1e" d="M 355.894531 160.628906 C 355.792969 159.824219 355.609375 159.039062 355.351562 158.269531 C 355.089844 157.503906 354.757812 156.769531 354.347656 156.070312 C 353.941406 155.367188 353.46875 154.714844 352.929688 154.109375 C 352.390625 153.503906 351.796875 152.957031 351.148438 152.472656 C 350.5 151.988281 349.808594 151.570312 349.078125 151.222656 C 348.34375 150.875 347.585938 150.605469 346.800781 150.410156 C 346.011719 150.214844 345.214844 150.101562 344.40625 150.066406 C 343.59375 150.03125 342.789062 150.078125 341.988281 150.207031 C 341.191406 150.335938 340.410156 150.542969 339.652344 150.824219 C 338.894531 151.109375 338.167969 151.46875 337.484375 151.898438 C 336.796875 152.328125 336.15625 152.820312 335.570312 153.378906 C 334.984375 153.9375 334.457031 154.546875 333.992188 155.210938 C 333.527344 155.875 333.132812 156.578125 332.808594 157.320312 C 332.484375 158.0625 332.238281 158.832031 332.070312 159.625 C 331.898438 160.417969 331.8125 161.21875 331.800781 162.027344 C 331.792969 162.839844 331.867188 163.640625 332.019531 164.4375 C 333.226562 172.078125 333.832031 179.765625 333.835938 187.5 C 333.835938 189.875 333.777344 192.25 333.660156 194.621094 C 333.542969 196.992188 333.367188 199.359375 333.136719 201.726562 C 332.902344 204.089844 332.613281 206.445312 332.261719 208.792969 C 331.914062 211.144531 331.507812 213.484375 331.046875 215.8125 C 330.582031 218.140625 330.0625 220.457031 329.484375 222.761719 C 328.90625 225.066406 328.273438 227.355469 327.585938 229.628906 C 326.894531 231.898438 326.152344 234.15625 325.351562 236.390625 C 324.550781 238.628906 323.695312 240.84375 322.789062 243.035156 C 321.878906 245.230469 320.917969 247.402344 319.902344 249.550781 C 318.886719 251.695312 317.816406 253.816406 316.699219 255.910156 C 315.578125 258.007812 314.410156 260.070312 313.1875 262.109375 C 311.964844 264.144531 310.695312 266.152344 309.375 268.128906 C 308.058594 270.101562 306.691406 272.042969 305.273438 273.949219 C 303.859375 275.859375 302.398438 277.730469 300.890625 279.566406 C 299.386719 281.402344 297.835938 283.199219 296.238281 284.960938 C 294.644531 286.71875 293.007812 288.4375 291.328125 290.117188 C 289.648438 291.796875 287.929688 293.433594 286.167969 295.03125 C 284.410156 296.625 282.613281 298.175781 280.777344 299.683594 C 278.941406 301.191406 277.066406 302.652344 275.160156 304.066406 C 273.253906 305.480469 271.3125 306.847656 269.335938 308.167969 C 267.363281 309.488281 265.355469 310.757812 263.320312 311.976562 C 261.28125 313.199219 259.214844 314.371094 257.121094 315.488281 C 255.027344 316.609375 252.90625 317.675781 250.757812 318.691406 C 248.609375 319.707031 246.441406 320.667969 244.246094 321.578125 C 242.050781 322.488281 239.835938 323.339844 237.601562 324.140625 C 235.363281 324.941406 233.109375 325.6875 230.835938 326.375 C 228.5625 327.066406 226.277344 327.699219 223.972656 328.277344 C 221.667969 328.851562 219.351562 329.375 217.023438 329.835938 C 214.691406 330.300781 212.351562 330.707031 210.003906 331.054688 C 207.652344 331.402344 205.296875 331.691406 202.933594 331.925781 C 200.570312 332.160156 198.203125 332.332031 195.832031 332.449219 C 193.457031 332.566406 191.085938 332.625 188.710938 332.625 C 186.335938 332.625 183.960938 332.566406 181.589844 332.449219 C 179.214844 332.332031 176.847656 332.160156 174.484375 331.925781 C 172.121094 331.691406 169.765625 331.402344 167.414062 331.054688 C 165.066406 330.707031 162.726562 330.300781 160.398438 329.835938 C 158.066406 329.371094 155.75 328.851562 153.445312 328.277344 C 151.144531 327.699219 148.855469 327.066406 146.582031 326.375 C 144.308594 325.6875 142.054688 324.941406 139.816406 324.140625 C 137.582031 323.339844 135.367188 322.488281 133.171875 321.578125 C 130.976562 320.667969 128.808594 319.707031 126.660156 318.691406 C 124.511719 317.675781 122.390625 316.609375 120.296875 315.488281 C 118.203125 314.371094 116.136719 313.199219 114.101562 311.976562 C 112.0625 310.757812 110.058594 309.488281 108.082031 308.167969 C 106.109375 306.847656 104.167969 305.480469 102.257812 304.066406 C 100.351562 302.652344 98.480469 301.191406 96.644531 299.683594 C 94.808594 298.175781 93.007812 296.625 91.25 295.03125 C 89.488281 293.433594 87.769531 291.796875 86.089844 290.117188 C 84.410156 288.4375 82.773438 286.71875 81.179688 284.960938 C 79.582031 283.199219 78.03125 281.402344 76.527344 279.566406 C 75.019531 277.730469 73.558594 275.859375 72.144531 273.949219 C 70.730469 272.042969 69.363281 270.101562 68.042969 268.128906 C 66.722656 266.152344 65.453125 264.144531 64.230469 262.109375 C 63.011719 260.070312 61.839844 258.007812 60.71875 255.910156 C 59.601562 253.816406 58.535156 251.695312 57.519531 249.550781 C 56.503906 247.402344 55.539062 245.230469 54.632812 243.035156 C 53.722656 240.84375 52.867188 238.628906 52.066406 236.390625 C 51.269531 234.15625 50.523438 231.898438 49.832031 229.628906 C 49.144531 227.355469 48.511719 225.066406 47.933594 222.761719 C 47.355469 220.457031 46.835938 218.140625 46.371094 215.8125 C 45.910156 213.484375 45.503906 211.144531 45.15625 208.792969 C 44.804688 206.445312 44.515625 204.089844 44.28125 201.726562 C 44.050781 199.359375 43.875 196.992188 43.757812 194.621094 C 43.644531 192.25 43.585938 189.875 43.585938 187.5 C 43.585938 185.125 43.644531 182.75 43.757812 180.378906 C 43.875 178.007812 44.050781 175.640625 44.28125 173.273438 C 44.515625 170.910156 44.804688 168.554688 45.15625 166.207031 C 45.503906 163.855469 45.910156 161.515625 46.371094 159.1875 C 46.835938 156.859375 47.355469 154.542969 47.933594 152.238281 C 48.511719 149.933594 49.144531 147.644531 49.832031 145.371094 C 50.523438 143.101562 51.269531 140.84375 52.066406 138.609375 C 52.867188 136.371094 53.722656 134.15625 54.632812 131.964844 C 55.539062 129.769531 56.503906 127.597656 57.519531 125.449219 C 58.535156 123.304688 59.601562 121.183594 60.71875 119.089844 C 61.839844 116.992188 63.011719 114.929688 64.230469 112.890625 C 65.453125 110.855469 66.722656 108.847656 68.042969 106.871094 C 69.363281 104.898438 70.730469 102.957031 72.144531 101.050781 C 73.558594 99.140625 75.019531 97.269531 76.527344 95.433594 C 78.03125 93.597656 79.582031 91.800781 81.179688 90.039062 C 82.773438 88.28125 84.410156 86.5625 86.089844 84.882812 C 87.769531 83.203125 89.488281 81.566406 91.25 79.96875 C 93.007812 78.375 94.808594 76.824219 96.644531 75.316406 C 98.480469 73.808594 100.351562 72.347656 102.257812 70.933594 C 104.167969 69.519531 106.109375 68.152344 108.082031 66.832031 C 110.058594 65.511719 112.0625 64.242188 114.101562 63.023438 C 116.136719 61.800781 118.203125 60.628906 120.296875 59.511719 C 122.390625 58.390625 124.511719 57.324219 126.660156 56.308594 C 128.808594 55.292969 130.976562 54.332031 133.171875 53.421875 C 135.367188 52.511719 137.582031 51.660156 139.816406 50.859375 C 142.054688 50.058594 144.308594 49.3125 146.582031 48.625 C 148.855469 47.933594 151.144531 47.300781 153.445312 46.722656 C 155.75 46.148438 158.066406 45.625 160.398438 45.164062 C 162.726562 44.699219 165.066406 44.292969 167.414062 43.945312 C 169.765625 43.597656 172.121094 43.304688 174.484375 43.074219 C 176.847656 42.839844 179.214844 42.667969 181.589844 42.550781 C 183.960938 42.433594 186.335938 42.375 188.710938 42.375 C 194.488281 42.355469 200.246094 42.6875 205.988281 43.363281 C 211.726562 44.039062 217.402344 45.058594 223.019531 46.421875 C 228.636719 47.785156 234.148438 49.480469 239.558594 51.507812 C 244.972656 53.535156 250.242188 55.878906 255.371094 58.542969 C 256.074219 58.882812 256.800781 59.152344 257.554688 59.351562 C 258.308594 59.550781 259.074219 59.675781 259.855469 59.726562 C 260.632812 59.777344 261.410156 59.753906 262.183594 59.65625 C 262.957031 59.554688 263.714844 59.382812 264.453125 59.136719 C 265.195312 58.890625 265.90625 58.574219 266.585938 58.191406 C 267.265625 57.808594 267.898438 57.363281 268.492188 56.855469 C 269.085938 56.351562 269.625 55.792969 270.109375 55.179688 C 270.597656 54.570312 271.019531 53.917969 271.378906 53.222656 C 271.738281 52.53125 272.027344 51.8125 272.246094 51.0625 C 272.464844 50.3125 272.609375 49.550781 272.683594 48.773438 C 272.753906 47.996094 272.75 47.21875 272.671875 46.445312 C 272.59375 45.667969 272.441406 44.90625 272.214844 44.160156 C 271.992188 43.414062 271.695312 42.695312 271.332031 42.003906 C 270.964844 41.316406 270.539062 40.667969 270.046875 40.058594 C 269.558594 39.453125 269.015625 38.898438 268.417969 38.398438 C 267.820312 37.894531 267.179688 37.457031 266.496094 37.078125 C 263.703125 35.636719 260.875 34.273438 258.007812 32.988281 C 255.140625 31.703125 252.238281 30.5 249.304688 29.375 C 246.367188 28.253906 243.402344 27.210938 240.410156 26.253906 C 237.417969 25.296875 234.402344 24.421875 231.359375 23.632812 C 228.316406 22.84375 225.257812 22.140625 222.175781 21.519531 C 219.09375 20.902344 216 20.367188 212.890625 19.921875 C 209.777344 19.472656 206.65625 19.113281 203.527344 18.84375 C 200.398438 18.570312 197.261719 18.382812 194.121094 18.285156 C 190.980469 18.1875 187.835938 18.175781 184.695312 18.253906 C 181.554688 18.332031 178.417969 18.496094 175.285156 18.746094 C 172.152344 19 169.03125 19.339844 165.917969 19.765625 C 162.804688 20.191406 159.703125 20.703125 156.621094 21.300781 C 153.535156 21.898438 150.46875 22.582031 147.421875 23.351562 C 144.375 24.121094 141.351562 24.976562 138.351562 25.914062 C 135.355469 26.851562 132.382812 27.871094 129.441406 28.976562 C 126.5 30.078125 123.589844 31.261719 120.710938 32.527344 C 117.835938 33.792969 114.996094 35.136719 112.195312 36.5625 C 109.394531 37.984375 106.636719 39.488281 103.917969 41.0625 C 101.199219 42.640625 98.527344 44.292969 95.902344 46.019531 C 93.277344 47.746094 90.699219 49.542969 88.175781 51.414062 C 85.648438 53.285156 83.175781 55.222656 80.761719 57.230469 C 78.34375 59.238281 75.984375 61.3125 73.679688 63.449219 C 71.378906 65.589844 69.136719 67.789062 66.957031 70.054688 C 64.78125 72.320312 62.664062 74.640625 60.613281 77.023438 C 58.566406 79.40625 56.582031 81.84375 54.667969 84.335938 C 52.753906 86.828125 50.910156 89.371094 49.140625 91.964844 C 47.367188 94.558594 45.667969 97.203125 44.042969 99.890625 C 42.417969 102.582031 40.871094 105.3125 39.394531 108.089844 C 37.921875 110.867188 36.527344 113.679688 35.214844 116.535156 C 33.898438 119.386719 32.660156 122.277344 31.507812 125.199219 C 30.351562 128.121094 29.277344 131.074219 28.289062 134.054688 C 27.296875 137.039062 26.390625 140.042969 25.566406 143.078125 C 24.746094 146.109375 24.007812 149.164062 23.355469 152.238281 C 22.703125 155.3125 22.136719 158.402344 21.652344 161.507812 C 21.171875 164.613281 20.78125 167.726562 20.472656 170.855469 C 20.164062 173.984375 19.945312 177.117188 19.8125 180.257812 C 19.679688 183.394531 19.636719 186.535156 19.679688 189.679688 C 19.722656 192.820312 19.851562 195.960938 20.070312 199.09375 C 20.285156 202.230469 20.589844 205.355469 20.984375 208.472656 C 21.375 211.589844 21.851562 214.695312 22.417969 217.789062 C 22.984375 220.878906 23.632812 223.953125 24.367188 227.007812 C 25.105469 230.0625 25.925781 233.09375 26.832031 236.101562 C 27.734375 239.113281 28.722656 242.09375 29.792969 245.046875 C 30.867188 248.003906 32.019531 250.925781 33.253906 253.816406 C 34.484375 256.703125 35.800781 259.558594 37.191406 262.375 C 38.585938 265.191406 40.054688 267.96875 41.601562 270.703125 C 43.152344 273.4375 44.773438 276.128906 46.472656 278.773438 C 48.167969 281.417969 49.9375 284.011719 51.78125 286.558594 C 53.621094 289.101562 55.535156 291.597656 57.515625 294.035156 C 59.496094 296.476562 61.542969 298.855469 63.65625 301.183594 C 65.769531 303.507812 67.949219 305.773438 70.1875 307.976562 C 72.429688 310.179688 74.726562 312.320312 77.085938 314.394531 C 79.445312 316.472656 81.859375 318.480469 84.332031 320.421875 C 86.804688 322.363281 89.328125 324.234375 91.902344 326.035156 C 94.476562 327.835938 97.101562 329.5625 99.773438 331.214844 C 102.445312 332.871094 105.160156 334.449219 107.917969 335.953125 C 110.679688 337.457031 113.476562 338.882812 116.316406 340.226562 C 119.15625 341.574219 122.03125 342.84375 124.941406 344.03125 C 127.851562 345.214844 130.789062 346.320312 133.761719 347.34375 C 136.734375 348.367188 139.730469 349.308594 142.753906 350.164062 C 145.777344 351.019531 148.820312 351.789062 151.890625 352.476562 C 154.957031 353.164062 158.039062 353.765625 161.136719 354.277344 C 164.238281 354.792969 167.351562 355.222656 170.472656 355.5625 C 173.597656 355.902344 176.730469 356.15625 179.867188 356.324219 C 183.003906 356.492188 186.144531 356.570312 189.289062 356.5625 C 192.429688 356.554688 195.570312 356.457031 198.707031 356.273438 C 201.84375 356.089844 204.972656 355.820312 208.09375 355.464844 C 211.21875 355.105469 214.328125 354.660156 217.425781 354.128906 C 220.523438 353.601562 223.601562 352.984375 226.664062 352.28125 C 229.726562 351.578125 232.769531 350.789062 235.789062 349.917969 C 238.804688 349.046875 241.800781 348.089844 244.765625 347.054688 C 247.730469 346.015625 250.664062 344.894531 253.570312 343.691406 C 256.472656 342.488281 259.339844 341.207031 262.171875 339.84375 C 265.003906 338.484375 267.796875 337.042969 270.546875 335.527344 C 273.296875 334.007812 276.003906 332.414062 278.667969 330.746094 C 281.332031 329.078125 283.945312 327.335938 286.511719 325.523438 C 289.078125 323.707031 291.589844 321.824219 294.050781 319.871094 C 296.511719 317.914062 298.917969 315.894531 301.265625 313.804688 C 303.613281 311.71875 305.902344 309.566406 308.128906 307.351562 C 310.359375 305.136719 312.523438 302.859375 314.625 300.523438 C 316.726562 298.1875 318.761719 295.792969 320.730469 293.34375 C 322.699219 290.894531 324.597656 288.390625 326.425781 285.835938 C 328.253906 283.28125 330.011719 280.675781 331.695312 278.023438 C 333.378906 275.367188 334.984375 272.671875 336.519531 269.925781 C 338.050781 267.183594 339.507812 264.402344 340.886719 261.578125 C 342.265625 258.753906 343.5625 255.890625 344.78125 252.996094 C 346 250.097656 347.136719 247.171875 348.191406 244.210938 C 349.246094 241.25 350.21875 238.265625 351.109375 235.25 C 352 232.238281 352.804688 229.199219 353.523438 226.140625 C 354.242188 223.082031 354.878906 220.007812 355.425781 216.910156 C 355.972656 213.816406 356.4375 210.710938 356.8125 207.589844 C 357.1875 204.472656 357.476562 201.34375 357.675781 198.207031 C 357.875 195.070312 357.992188 191.933594 358.015625 188.789062 C 358.042969 185.648438 357.980469 182.507812 357.832031 179.367188 C 357.683594 176.230469 357.449219 173.097656 357.125 169.96875 C 356.800781 166.84375 356.390625 163.730469 355.894531 160.628906 Z M 355.894531 160.628906 " fill-opacity="1" fill-rule="nonzero"/><path fill="#1e1e1e" d="M 118.648438 148.714844 C 118.085938 148.167969 117.472656 147.683594 116.8125 147.257812 C 116.15625 146.832031 115.460938 146.472656 114.730469 146.179688 C 114 145.890625 113.25 145.671875 112.480469 145.527344 C 111.707031 145.382812 110.929688 145.3125 110.144531 145.320312 C 109.359375 145.328125 108.582031 145.410156 107.8125 145.566406 C 107.042969 145.726562 106.296875 145.957031 105.570312 146.261719 C 104.847656 146.566406 104.160156 146.933594 103.507812 147.375 C 102.855469 147.8125 102.253906 148.308594 101.695312 148.863281 C 101.140625 149.417969 100.644531 150.019531 100.207031 150.671875 C 99.769531 151.324219 99.398438 152.011719 99.09375 152.738281 C 98.792969 153.460938 98.5625 154.207031 98.402344 154.976562 C 98.246094 155.746094 98.160156 156.523438 98.15625 157.308594 C 98.148438 158.09375 98.21875 158.871094 98.363281 159.644531 C 98.507812 160.417969 98.726562 161.167969 99.015625 161.894531 C 99.308594 162.625 99.664062 163.320312 100.09375 163.980469 C 100.519531 164.640625 101.003906 165.25 101.550781 165.816406 L 174.113281 238.378906 C 174.671875 238.941406 175.285156 239.441406 175.945312 239.882812 C 176.605469 240.324219 177.300781 240.695312 178.035156 241 C 178.769531 241.304688 179.523438 241.53125 180.304688 241.6875 C 181.082031 241.84375 181.867188 241.917969 182.664062 241.917969 C 183.457031 241.917969 184.242188 241.84375 185.019531 241.6875 C 185.800781 241.53125 186.554688 241.304688 187.289062 241 C 188.023438 240.695312 188.71875 240.324219 189.378906 239.882812 C 190.039062 239.441406 190.652344 238.941406 191.210938 238.378906 L 324.242188 105.347656 C 324.820312 104.789062 325.339844 104.179688 325.792969 103.519531 C 326.25 102.859375 326.636719 102.160156 326.953125 101.421875 C 327.269531 100.683594 327.511719 99.921875 327.675781 99.136719 C 327.84375 98.351562 327.929688 97.554688 327.9375 96.753906 C 327.941406 95.949219 327.871094 95.15625 327.71875 94.367188 C 327.566406 93.578125 327.339844 92.8125 327.035156 92.070312 C 326.730469 91.324219 326.355469 90.621094 325.914062 89.949219 C 325.46875 89.28125 324.960938 88.664062 324.394531 88.097656 C 323.828125 87.527344 323.207031 87.023438 322.539062 86.578125 C 321.871094 86.132812 321.164062 85.757812 320.421875 85.453125 C 319.679688 85.152344 318.914062 84.921875 318.125 84.773438 C 317.335938 84.621094 316.539062 84.546875 315.738281 84.554688 C 314.933594 84.5625 314.140625 84.648438 313.355469 84.8125 C 312.570312 84.976562 311.808594 85.21875 311.070312 85.535156 C 310.332031 85.851562 309.632812 86.238281 308.972656 86.695312 C 308.308594 87.152344 307.703125 87.667969 307.144531 88.246094 L 182.664062 212.726562 Z M 118.648438 148.714844 " fill-opacity="1" fill-rule="nonzero"/></svg>