<!DOCTYPE svg PUBLIC "-//W3C//DTD SVG 1.1//EN" "http://www.w3.org/Graphics/SVG/1.1/DTD/svg11.dtd">
<!-- Uploaded to: SVG Repo, www.svgrepo.com, Transformed by: SVG Repo Mixer Tools -->
<svg width="800px" height="800px" viewBox="0 0 24 24" fill="none" xmlns="http://www.w3.org/2000/svg" stroke="#38ff5d">
<g id="SVGRepo_bgCarrier" stroke-width="0"/>
<g id="SVGRepo_tracerCarrier" stroke-linecap="round" stroke-linejoin="round"/>
<g id="SVGRepo_iconCarrier"> <rect x="3" y="6" width="18" height="15" rx="2" stroke="#38ff5d" stroke-width="2"/> <path d="M3 10C3 8.11438 3 7.17157 3.58579 6.58579C4.17157 6 5.11438 6 7 6H17C18.8856 6 19.8284 6 20.4142 6.58579C21 7.17157 21 8.11438 21 10H3Z" fill="#38ff5d"/> <path d="M7 3L7 6" stroke="#38ff5d" stroke-width="2" stroke-linecap="round"/> <path d="M17 3L17 6" stroke="#38ff5d" stroke-width="2" stroke-linecap="round"/> <rect x="7" y="12" width="4" height="2" rx="0.5" fill="#38ff5d"/> <rect x="7" y="16" width="4" height="2" rx="0.5" fill="#38ff5d"/> <rect x="13" y="12" width="4" height="2" rx="0.5" fill="#38ff5d"/> <rect x="13" y="16" width="4" height="2" rx="0.5" fill="#38ff5d"/> </g>
</svg>