<svg xmlns="http://www.w3.org/2000/svg" xmlns:xlink="http://www.w3.org/1999/xlink" width="500" zoomAndPan="magnify" viewBox="0 0 375 374.999991" height="500" preserveAspectRatio="xMidYMid meet" version="1.0"><defs><clipPath id="77388359e7"><path d="M 62.308594 0 L 312.808594 0 L 312.808594 355.5 L 62.308594 355.5 Z M 62.308594 0 " clip-rule="nonzero"/></clipPath></defs><g clip-path="url(#77388359e7)"><path fill="#fffefe" d="M 291.230469 80.140625 L 291.230469 33.328125 L 303.214844 33.328125 C 308.457031 33.328125 312.578125 29.210938 312.578125 23.96875 L 312.578125 9.363281 C 312.578125 4.121094 308.457031 0 303.214844 0 L 71.777344 0 C 66.535156 0 62.414062 4.121094 62.414062 9.363281 L 62.414062 24.34375 C 62.414062 29.585938 66.535156 33.703125 71.777344 33.703125 L 83.761719 33.703125 L 83.761719 80.515625 C 83.761719 110.851562 96.867188 138.9375 120.085938 158.410156 L 143.679688 177.882812 L 120.085938 197.359375 C 96.867188 216.832031 83.761719 245.292969 83.761719 275.253906 L 83.761719 322.066406 L 71.777344 322.066406 C 66.535156 322.066406 62.414062 326.183594 62.414062 331.425781 L 62.414062 346.40625 C 62.414062 351.648438 66.535156 355.769531 71.777344 355.769531 L 302.839844 355.769531 C 308.082031 355.769531 312.203125 351.648438 312.203125 346.40625 L 312.203125 331.425781 C 312.203125 326.183594 308.082031 322.066406 302.839844 322.066406 L 290.855469 322.066406 L 290.855469 275.628906 C 290.855469 245.292969 277.75 217.207031 254.53125 197.734375 L 231.3125 177.882812 L 254.90625 158.410156 C 277.75 138.9375 291.230469 110.476562 291.230469 80.140625 Z M 242.921875 144.179688 L 211.089844 170.769531 C 208.839844 172.640625 207.71875 175.261719 207.71875 177.882812 C 207.71875 180.507812 208.839844 183.128906 211.089844 185 L 242.921875 211.589844 C 262.019531 227.316406 272.878906 250.535156 272.878906 275.253906 L 272.878906 322.066406 L 102.109375 322.066406 L 102.109375 275.628906 C 102.109375 250.910156 112.972656 227.691406 132.070312 211.964844 L 163.902344 185.375 C 166.148438 183.503906 167.273438 180.878906 167.273438 178.257812 C 167.273438 175.636719 166.148438 173.015625 163.902344 171.144531 L 132.070312 144.179688 C 112.972656 128.453125 102.109375 105.234375 102.109375 80.515625 L 102.109375 33.328125 L 272.503906 33.328125 L 272.503906 80.140625 C 272.878906 104.859375 261.644531 128.078125 242.921875 144.179688 Z M 242.921875 144.179688 " fill-opacity="1" fill-rule="nonzero"/></g><path fill="#fffefe" d="M 233.183594 242.671875 L 196.109375 219.078125 C 193.113281 217.207031 191.613281 214.210938 191.613281 210.464844 L 191.613281 167.398438 L 233.558594 132.570312 C 234.679688 131.449219 235.804688 130.699219 236.929688 129.574219 C 236.929688 129.574219 210.714844 135.566406 187.871094 135.566406 C 165.027344 135.566406 138.8125 129.574219 138.8125 129.574219 C 139.933594 130.699219 141.058594 131.820312 142.179688 132.570312 L 184.125 167.398438 L 184.125 210.464844 C 184.125 213.835938 182.253906 217.207031 179.632812 219.078125 L 142.554688 243.046875 C 126.828125 253.15625 118.214844 267.761719 118.214844 283.117188 L 118.214844 307.460938 L 258.648438 307.460938 L 258.648438 282.742188 C 257.898438 267.390625 248.914062 252.785156 233.183594 242.671875 Z M 233.183594 242.671875 " fill-opacity="1" fill-rule="nonzero"/></svg>