<svg xmlns="http://www.w3.org/2000/svg" xmlns:xlink="http://www.w3.org/1999/xlink" width="500" zoomAndPan="magnify" viewBox="0 0 375 374.999991" height="500" preserveAspectRatio="xMidYMid meet" version="1.0"><defs><clipPath id="44373bd154"><path d="M 0 72 L 370.5 72 L 370.5 299 L 0 299 Z M 0 72 " clip-rule="nonzero"/></clipPath></defs><g clip-path="url(#44373bd154)"><path fill="#fffefe" d="M 367.394531 127.144531 C 367.378906 127.121094 367.367188 127.097656 367.347656 127.074219 L 327.078125 76.9375 C 326.625 76.375 326.113281 75.890625 325.570312 75.457031 C 323.835938 73.398438 321.273438 72.066406 318.375 72.066406 L 52.394531 72.066406 C 49.492188 72.066406 46.933594 73.398438 45.199219 75.457031 C 44.65625 75.890625 44.144531 76.367188 43.6875 76.9375 L 3.421875 127.074219 C 3.402344 127.097656 3.394531 127.121094 3.375 127.144531 C 1.328125 128.878906 0 131.433594 0 134.324219 L 0 289.257812 C 0 294.476562 4.230469 298.703125 9.445312 298.703125 L 361.324219 298.703125 C 366.542969 298.703125 370.769531 294.476562 370.769531 289.257812 L 370.769531 134.324219 C 370.769531 131.433594 369.441406 128.878906 367.394531 127.144531 Z M 327.820312 108.023438 L 341.363281 124.878906 L 327.820312 124.878906 Z M 308.929688 90.957031 L 308.929688 124.878906 L 238.207031 124.878906 C 236.1875 124.878906 234.230469 125.527344 232.605469 126.71875 L 185.390625 161.464844 L 138.164062 126.714844 C 136.542969 125.527344 134.582031 124.878906 132.566406 124.878906 L 61.839844 124.878906 L 61.839844 90.957031 Z M 42.949219 124.878906 L 29.410156 124.878906 L 42.949219 108.023438 Z M 351.882812 279.8125 L 18.890625 279.8125 L 18.890625 143.769531 L 129.46875 143.769531 L 179.792969 180.804688 C 183.121094 183.246094 187.660156 183.253906 190.988281 180.800781 L 241.300781 143.769531 L 351.882812 143.769531 Z M 351.882812 279.8125 " fill-opacity="1" fill-rule="nonzero"/></g></svg>