<svg xmlns="http://www.w3.org/2000/svg" xmlns:xlink="http://www.w3.org/1999/xlink" width="500" zoomAndPan="magnify" viewBox="0 0 375 374.999991" height="500" preserveAspectRatio="xMidYMid meet" version="1.0"><path fill="#fffefe" d="M 375 375 L 304.6875 375 L 253.988281 312.601562 C 233.550781 322.691406 210.84375 328.125 187.5 328.125 C 142.949219 328.125 100.695312 308.335938 72.175781 274.109375 L 0 187.5 L 72.175781 100.890625 C 73.824219 98.910156 75.523438 96.976562 77.261719 95.09375 L 0 0 L 70.3125 0 Z M 125.449219 154.398438 C 120.175781 164.265625 117.1875 175.53125 117.1875 187.5 C 117.1875 226.332031 148.667969 257.8125 187.5 257.8125 C 194.339844 257.8125 200.949219 256.835938 207.199219 255.015625 Z M 125.449219 154.398438 " fill-opacity="1" fill-rule="evenodd"/><path fill="#fffefe" d="M 375 187.5 L 333.464844 237.34375 L 178.910156 47.121094 C 181.761719 46.957031 184.625 46.875 187.5 46.875 C 232.050781 46.875 274.304688 66.664062 302.828125 100.890625 Z M 375 187.5 " fill-opacity="1" fill-rule="nonzero"/></svg>