<svg xmlns="http://www.w3.org/2000/svg" xmlns:xlink="http://www.w3.org/1999/xlink" width="500" zoomAndPan="magnify" viewBox="0 0 375 374.999991" height="500" preserveAspectRatio="xMidYMid meet" version="1.0"><path fill="#1e1e1e" d="M 0 187.5 L 72.175781 100.890625 C 100.695312 66.664062 142.949219 46.875 187.5 46.875 C 232.050781 46.875 274.304688 66.664062 302.828125 100.890625 L 375 187.5 L 302.828125 274.109375 C 274.304688 308.335938 232.050781 328.125 187.5 328.125 C 142.949219 328.125 100.695312 308.335938 72.175781 274.109375 Z M 187.5 257.8125 C 226.332031 257.8125 257.8125 226.332031 257.8125 187.5 C 257.8125 148.667969 226.332031 117.1875 187.5 117.1875 C 148.667969 117.1875 117.1875 148.667969 117.1875 187.5 C 117.1875 226.332031 148.667969 257.8125 187.5 257.8125 Z M 187.5 257.8125 " fill-opacity="1" fill-rule="evenodd"/></svg>