<svg xmlns="http://www.w3.org/2000/svg" xmlns:xlink="http://www.w3.org/1999/xlink" width="500" zoomAndPan="magnify" viewBox="0 0 375 374.999991" height="500" preserveAspectRatio="xMidYMid meet" version="1.0"><path fill="#fffefe" d="M 187.5 0 C 84.09375 0 0.0390625 84.132812 0.0390625 187.539062 C 0.0390625 290.941406 84.09375 375 187.5 375 C 290.90625 375 374.960938 290.941406 374.960938 187.539062 C 374.960938 84.132812 290.90625 0 187.5 0 Z M 187.5 344.632812 C 100.890625 344.632812 30.40625 274.144531 30.40625 187.539062 C 30.40625 100.929688 100.890625 30.445312 187.5 30.445312 C 274.109375 30.445312 344.59375 100.929688 344.59375 187.539062 C 344.59375 274.144531 274.109375 344.632812 187.5 344.632812 Z M 187.5 344.632812 " fill-opacity="1" fill-rule="nonzero"/><path fill="#fffefe" d="M 270.957031 181.914062 L 138.085938 105.203125 C 133.8125 102.730469 128.410156 105.804688 128.410156 110.753906 L 128.410156 264.246094 C 128.410156 269.195312 133.8125 272.269531 138.085938 269.796875 L 271.035156 193.085938 C 275.308594 190.613281 275.308594 184.386719 270.957031 181.914062 Z M 270.957031 181.914062 " fill-opacity="1" fill-rule="nonzero"/></svg>